<!-- Generated by IcoMoon.io -->
<svg version="1.1" xmlns="http://www.w3.org/2000/svg" width="1024" height="1024" viewBox="0 0 1024 1024">
<title></title>
<g id="icomoon-ignore">
</g>
<path fill="#000" d="M42.519 144.314c-3.842 1.281-10.9 5.777-15.615 9.62-27.169 22.891-20.737 66.52 12.18 81.698 8.12 3.842 26.107 4.060 463.052 4.060 288.536 0 457.304-0.844 461.99-2.124 17.957-4.934 34.228-27.388 34.228-47.063 0-10.682-6.215-26.107-13.461-33.792-2.561-2.78-8.557-7.277-13.273-9.62l-8.557-4.715-456.649-0.437c-355.057-0.219-458.148 0.219-463.925 2.343z"></path>
<path fill="#000" d="M401.636 392.564c-22.891 3.216-41.067 17.74-47.908 38.070-3.216 9.62-3.435 22.237-2.997 112.085 0.655 99.468 0.655 101.592 5.34 110.15 5.559 10.274 18.832 22.891 29.949 28.014 7.495 3.435 16.895 3.842 110.804 3.842 94.316 0 103.31-0.219 110.804-3.842 13.679-6.402 26.515-19.894 31.449-32.729 4.060-11.118 4.278-16.27 4.278-108.65 0-109.713-0.219-112.493-15.178-128.544-4.715-4.934-13.461-11.336-19.675-14.116-11.118-5.123-11.555-5.123-103.092-5.34-50.468-0.219-97.314 0.219-103.746 1.062zM585.146 538.629l0.437 87.257h-177.513v-175.389l88.35 0.437 88.132 0.655 0.655 87.040z"></path>
<path fill="#000" d="M708.767 416.299c-3.435 1.062-8.557 4.060-11.336 6.84-16.459 15.397-14.552 37.633 4.497 51.749 5.777 4.278 8.557 4.497 110.586 5.123 100.312 0.655 105.027 0.437 114.209-3.624 10.274-4.497 16.895-13.273 19.238-25.234 1.935-10.274-5.996-25.89-16.052-31.667-7.277-4.060-11.555-4.278-111.212-4.715-57.12-0.219-106.526 0.437-109.931 1.499z"></path>
<path fill="#000" d="M69.034 419.515c-10.274 3.624-19.894 14.335-21.611 24.172-2.997 16.052 8.557 34.446 24.391 38.913 11.118 2.997 205.12 2.997 217.301-0.219 29.076-7.277 34.446-45.346 8.775-61.18-5.996-3.624-13.898-3.842-113.366-4.278-88.132-0.437-108.432 0-115.49 2.561z"></path>
<path fill="#000" d="M703.645 597.466c-21.611 10.493-23.11 42.13-2.78 55.839l7.495 4.934 219.236-1.281 7.713-7.495c17.332-16.895 13.273-41.912-8.994-53.248-3.216-1.718-36.353-2.343-110.15-2.343-92.817 0-106.308 0.437-112.493 3.624z"></path>
<path fill="#000" d="M73.106 602.37c-23.11 5.34-33.354 32.729-19.675 51.968 2.561 3.435 8.339 8.12 13.273 10.274 8.12 3.624 16.052 4.060 114.209 4.060 114.865 0 113.584 0.219 125.139-12.399 17.114-18.176 6.621-49.188-18.176-54.121-11.336-2.124-205.557-2.124-214.739 0.219z"></path>
<path fill="#000" d="M42.519 855.69c-3.842 1.281-10.9 5.777-15.615 9.62-27.169 22.891-20.737 66.52 12.18 81.698 8.12 3.842 26.107 4.060 463.052 4.060 288.536 0 457.304-0.844 461.99-2.124 17.957-4.934 34.228-27.388 34.228-47.063 0-10.682-6.215-26.107-13.461-33.792-2.561-2.78-8.557-7.277-13.273-9.62l-8.557-4.715-456.649-0.437c-355.057-0.219-458.148 0.219-463.925 2.343z"></path>
</svg>
