<!-- Generated by IcoMoon.io -->
<svg version="1.1" xmlns="http://www.w3.org/2000/svg" width="1024" height="1024" viewBox="0 0 1024 1024">
<title></title>
<g id="icomoon-ignore">
</g>
<path fill="#000" d="M44.19 145.621c-3.828 1.277-10.861 5.757-15.559 9.586-27.073 22.809-20.663 66.284 12.136 81.408 8.090 3.828 26.015 4.046 461.404 4.046 287.51 0 455.677-0.84 460.346-2.116 17.893-4.916 34.106-27.29 34.106-46.895 0-10.644-6.193-26.015-13.413-33.672-2.551-2.77-8.527-7.251-13.227-9.586l-8.527-4.699-455.024-0.435c-353.792-0.219-456.517 0.219-462.274 2.335z"></path>
<path fill="#000" d="M504.035 280.557c-41.478 5.819-74.402 32.145-86.807 68.978-5.819 17.433-6.219 40.291-5.437 203.084 1.19 180.23 1.19 184.064 9.67 199.573 10.068 18.622 34.115 41.478 54.265 50.753 13.58 6.219 30.613 6.968 200.762 6.968 170.88 0 187.182-0.397 200.762-6.968 24.78-11.596 48.049-36.041 56.985-59.307 7.348-20.151 7.745-29.485 7.745-196.865 0-198.779-0.397-203.816-27.499-232.907-8.54-8.938-24.384-20.534-35.643-25.576-20.151-9.275-20.931-9.275-186.783-9.67-91.437-0.397-176.319 0.397-187.975 1.926zM836.538 545.211l0.794 158.093h-321.625v-317.776l160.077 0.794 159.681 1.19 1.19 157.711z"></path>
<path fill="#000" d="M44.19 854.466c-3.828 1.277-10.861 5.757-15.559 9.586-27.073 22.809-20.663 66.284 12.136 81.408 8.090 3.828 26.015 4.046 461.404 4.046 287.51 0 455.677-0.84 460.346-2.116 17.893-4.916 34.106-27.29 34.106-46.895 0-10.644-6.193-26.015-13.413-33.672-2.551-2.77-8.527-7.251-13.227-9.586l-8.527-4.699-455.024-0.435c-353.792-0.219-456.517 0.219-462.274 2.335z"></path>
</svg>
