<!-- Generated by IcoMoon.io -->
<svg version="1.1" xmlns="http://www.w3.org/2000/svg" width="512" height="512" viewBox="0 0 512 512">
<title></title>
<g id="icomoon-ignore">
</g>
<path fill="#000" d="M32.066 256v223.484h447.87v-100.048c0-55.081-0.27-155.672-0.632-223.484l-0.541-123.436h-446.697v223.484zM164.801 122.361v68.173h-110.162v-136.347h110.162v68.173zM300.247 115.861c0 33.5-0.27 63.93-0.541 67.722l-0.632 6.952h-101.493l-0.632-2.798c-0.27-1.535-0.542-32.055-0.542-67.722v-64.924h103.84v60.769zM447.43 113.151c0 31.965-0.27 62.486-0.632 67.722l-0.541 9.662h-119.553l-0.541-6.14c-0.813-8.126-0.813-127.951 0-128.673 0.27-0.361 27.721-0.632 60.95-0.632h60.317v58.060zM164.801 256.904v45.599h-110.162v-44.968c0-24.74 0.27-45.329 0.632-45.6 0.27-0.361 25.104-0.632 55.080-0.632h54.448v45.6zM446.526 340.427v116.482h-248.947l-0.632-19.685c-0.723-23.748-0.723-170.57 0.090-195.492l0.542-17.789h248.947v116.482zM164.801 392.8v64.111h-110.162v-128.22h110.162v64.111z"></path>
</svg>
