<!-- Generated by IcoMoon.io -->
<svg version="1.1" xmlns="http://www.w3.org/2000/svg" width="528" height="512" viewBox="0 0 528 512">
<g id="icomoon-ignore">
</g>
<path fill="#000" d="M-32-32c190.080 0 380.16 0 576 0 0 190.080 0 380.16 0 576-190.080 0-380.16 0-576 0 0-190.080 0-380.16 0-576z"></path>
<path fill="#fefefe" d="M-32-32c190.080 0 380.16 0 576 0 0 190.080 0 380.16 0 576-190.080 0-380.16 0-576 0 0-190.080 0-380.16 0-576zM9.6 0.533c0 166.496 0 332.992 0 504.533 168.608 0 337.216 0 510.933 0 0-165.792 0-331.584 0-502.4-0.704 0-1.408 0-2.134 0 0-0.704 0-1.407 0-2.134-167.904 0-335.808 0-508.8 0z"></path>
<path fill="#fefefe" d="M181.867 187.201c49.28 0 98.56 0 149.333 0 0 40.832 0 81.664 0 123.733-9.924 1.654-19.815 3.184-29.781 4.497-0.677 0.089-1.355 0.178-2.053 0.271-0.675 0.089-1.351 0.178-2.046 0.269-5.176 0.689-10.337 1.452-15.495 2.267-2.916 0.46-5.828 0.884-8.759 1.231 2.077 2.567 4.337 4.86 6.788 7.069 4.406 4.020 8.584 8.262 12.779 12.498 1.522 1.537 3.048 3.072 4.573 4.606 0.346 0.351 0.692 0.701 1.049 1.062 0.478 0.481 0.478 0.481 0.967 0.973 0.28 0.283 0.56 0.565 0.848 0.856 0.728 0.729 0.728 0.729 1.796 1.202 0 0.352 0 0.704 0 1.066 0.308 0.135 0.615 0.269 0.933 0.406 1.353 0.745 2.249 1.584 3.334 2.682 0.413 0.414 0.826 0.829 1.251 1.257 0.44 0.448 0.882 0.896 1.335 1.357 0.684 0.689 0.684 0.689 1.382 1.391 1.457 1.466 2.91 2.937 4.364 4.408 1.457 1.473 2.916 2.943 4.375 4.413 0.909 0.916 1.815 1.831 2.721 2.749 0.409 0.413 0.819 0.826 1.241 1.252 0.361 0.365 0.721 0.73 1.092 1.106 0.864 0.89 0.864 0.89 1.971 1.38 0 0.352 0 0.704 0 1.066 0.462 0.198 0.462 0.198 0.933 0.399 1.454 0.808 2.346 1.447 3.333 2.8-0.118 1.272-0.308 2.478-0.533 3.733-0.176 1.108-0.35 2.216-0.523 3.325-0.214 1.336-0.429 2.673-0.644 4.008-0.057 0.358-0.115 0.714-0.174 1.082-1.068 6.624-2.192 13.238-3.335 19.851-0.874 5.064-1.723 10.131-2.558 15.2-0.949 5.753-1.97 11.49-3.060 17.219-1.509 7.471-1.509 7.471-1.973 15.048 3.486-1.468 6.795-3.166 10.104-4.99 2.584-1.41 2.584-1.41 3.762-1.41 0 10.208 0 20.416 0 30.933 0.88 0 1.76 0 2.666 0 0 0.176 0 0.352 0 0.533-50.512 0-101.024 0-153.066 0 0.352-0.176 0.704-0.352 1.066-0.533 0-45.056 0-90.111 0-136.533 32.209 0 64.416 0 97.6 0-2.053-7.185-6.819-12.97-11.6-18.601-0.289-0.342-0.579-0.685-0.877-1.038-8.104-9.411-16.805-14.142-29.22-15.159-1.869-0.135-3.738-0.233-5.609-0.322-0.68-0.033-1.359-0.065-2.060-0.099-16.035-0.616-32.309 0.832-48.234 1.618 0-40.304 0-80.608 0-122.133z"></path>
<path fill="#fefefe" d="M352 25.6c46.816 0 93.632 0 141.866 0 0 45.584 0 91.168 0 138.133-42.591 0-85.184 0-129.067 0 0-3.345 0-6.688 0-10.133-4.224 0-8.449 0-12.8 0 0-42.239 0-84.481 0-128z"></path>
<path fill="#fefefe" d="M181.867 25.6c49.28 0 98.56 0 149.333 0 0 42.239 0 84.481 0 128-49.281 0-98.56 0-149.333 0 0-42.239 0-84.481 0-128z"></path>
<path fill="#fefefe" d="M35.2 337.067c36.961 0 73.919 0 111.999 0 0 1.936 0 3.872 0 5.867 4.576 0 9.152 0 13.867 0 0 45.056 0 90.112 0 136.533 0.352 0.176 0.704 0.352 1.066 0.533-41.888 0-83.775 0-126.933 0 0-47.168 0-94.336 0-142.934z"></path>
<path fill="#fefefe" d="M35.2 25.6c41.536 0 83.072 0 125.867 0 0 42.239 0 84.481 0 128-4.576 0-9.152 0-13.867 0 0 3.345 0 6.688 0 10.133-36.96 0-73.919 0-111.999 0 0-45.584 0-91.168 0-138.133z"></path>
<path fill="#fefefe" d="M35.2 185.066c36.961 0 73.919 0 111.999 0 0 43.12 0 86.24 0 130.666-36.96 0-73.919 0-111.999 0 0-43.12 0-86.24 0-130.666z"></path>
<path fill="#fefefe" d="M364.8 185.066c42.591 0 85.184 0 129.067 0 0 43.823 0 87.648 0 132.8-4.533-0.324-8.952-0.662-13.433-1.3-0.477-0.065-0.954-0.13-1.445-0.197-2.318-0.322-4.618-0.685-6.915-1.124-4.796-0.891-9.641-1.486-14.473-2.146-1.978-0.271-3.955-0.541-5.933-0.814-0.728-0.101-0.728-0.101-1.473-0.204-3.675-0.512-7.337-1.089-11-1.684-2.305-0.368-4.599-0.673-6.924-0.889-0.485-0.048-0.969-0.096-1.469-0.144-0.963-0.091-1.927-0.168-2.892-0.233-3.411-0.368-3.411-0.368-4.757-1.709-0.719-1.11-1.277-2.218-1.82-3.423-0.191-0.384-0.384-0.766-0.579-1.161-0.596-1.204-1.161-2.418-1.719-3.639-2.156-4.673-4.454-9.27-6.767-13.867-9.678-19.268-9.678-19.268-13.224-26.79-1.584-3.359-3.224-6.688-4.899-10.001-0.803-1.588-1.59-3.184-2.37-4.784-0.217-0.442-0.435-0.885-0.659-1.341-0.423-0.863-0.845-1.726-1.264-2.591-0.92-2.143-0.92-2.143-2.649-3.559-0.12 0.414-0.24 0.828-0.363 1.255-0.938 2.597-2.172 5.003-3.42 7.464-0.27 0.537-0.54 1.074-0.818 1.628-0.864 1.719-1.731 3.436-2.599 5.154-1.13 2.239-2.257 4.479-3.384 6.718-0.277 0.551-0.555 1.103-0.839 1.671-2.047 4.087-4.038 8.2-5.986 12.337-1.441 3.059-2.935 6.089-4.458 9.108-0.176 0-0.352 0-0.533 0 0-31.857 0-63.712 0-96.534z"></path>
<path fill="#fdfdfd" d="M494.4 333.867c0 48.224 0 96.447 0 146.133-47.52 0-95.040 0-144 0 0.529-0.176 1.055-0.352 1.6-0.533 0-13.904 0-27.808 0-42.133 6.743-3.678 13.463-7.343 20.3-10.834 1.026-0.524 2.050-1.050 3.075-1.575 0.666-0.341 1.332-0.682 1.998-1.019 1.63-0.834 3.237-1.692 4.821-2.61 0.606-0.348 1.213-0.694 1.837-1.051 0.534-0.315 1.069-0.631 1.62-0.957 1.899-0.76 2.798-0.648 4.75-0.087 1.524 0.662 1.524 0.662 3.106 1.498 0.881 0.461 0.881 0.461 1.779 0.933 0.621 0.332 1.241 0.663 1.882 1.003 0.654 0.344 1.306 0.688 1.96 1.032 1.301 0.685 2.6 1.371 3.897 2.060 1.481 0.785 2.964 1.566 4.452 2.341 3.618 1.89 7.224 3.805 10.818 5.74 1.235 0.665 2.471 1.329 3.707 1.993 0.313 0.168 0.624 0.336 0.945 0.51 5.495 2.954 11.031 5.822 16.581 8.668 4.933 2.531 9.819 5.13 14.642 7.866 1.656 0.925 3.327 1.791 5.031 2.623-0.080-0.457-0.080-0.457-0.162-0.923-1.050-5.988-2.082-11.978-3.071-17.976-0.695-4.216-1.447-8.414-2.252-12.611-0.513-2.81-0.946-5.632-1.381-8.454-0.419-2.69-0.887-5.362-1.401-8.035-0.678-3.532-1.252-7.073-1.799-10.628-0.368-2.371-0.769-4.731-1.231-7.085-0.203-1.043-0.389-2.089-0.575-3.135-0.277-1.459-0.588-2.854-0.958-4.287-1.178-5.111-1.178-5.111 0.012-7.265 1.408-1.809 3.087-3.264 4.887-4.671 3.378-2.689 6.466-5.659 9.498-8.728 0.579-0.583 0.579-0.583 1.171-1.177 1.223-1.229 2.442-2.459 3.663-3.69 1.61-1.623 3.221-3.246 4.834-4.867 0.361-0.366 0.722-0.731 1.095-1.108 2.078-2.089 4.221-4.057 6.452-5.981 1.213-1.074 2.31-2.228 3.399-3.426 0.42-0.445 0.839-0.89 1.271-1.349 0.861-0.919 1.712-1.846 2.555-2.783 0.421-0.44 0.841-0.881 1.276-1.334 0.37-0.401 0.739-0.801 1.119-1.214 1.468-0.871 1.468-0.871 6.801-0.871z"></path>
<path fill="#565656" d="M34.666 25.6c0.176 0 0.352 0 0.533 0 0 45.584 0 91.168 0 138.133 36.96 0 73.919 0 112 0 0 7.040 0 14.079 0 21.333-36.96 0-73.919 0-111.999 0 0 43.12 0 86.24 0 130.666 36.961 0 73.919 0 111.999 0 0 7.040 0 14.079 0 21.333-36.96 0-73.919 0-111.999 0 0 47.168 0 94.336 0 142.934-0.176 0-0.352 0-0.533 0 0-149.952 0-299.904 0-454.4z"></path>
<path fill="#575757" d="M493.867 25.6c0.176 0 0.352 0 0.533 0 0 96.448 0 192.896 0 292.267-0.176 0-0.352 0-0.533 0 0-43.824 0-87.649 0-132.8-42.591 0-85.184 0-129.067 0 0 32.209 0 64.416 0 97.6-0.176 0-0.352 0-0.533 0 0-42.591 0-85.184 0-129.067 0.176 0 0.352 0 0.533 0 0 3.345 0 6.688 0 10.133 42.591 0 85.184 0 129.067 0 0-45.584 0-91.168 0-138.133z"></path>
<path fill="#535353" d="M161.067 342.933c6.864 0 13.727 0 20.8 0 0 45.056 0 90.111 0 136.533-1.654 0.827-3.402 0.61-5.217 0.604-0.615 0-0.615 0-1.243 0.002-0.868 0-1.736-0-2.603-0.002-1.331-0.002-2.662 0-3.993 0.003-0.843-0-1.685-0.001-2.528-0.002-0.6 0.002-0.6 0.002-1.21 0.003-2.817-0.012-2.817-0.012-4.006-0.608 0-45.056 0-90.112 0-136.533z"></path>
<path fill="#545454" d="M331.2 25.6c6.865 0 13.728 0 20.8 0 0 42.239 0 84.481 0 128-6.865 0-13.728 0-20.8 0 0-42.239 0-84.481 0-128z"></path>
<path fill="#535353" d="M161.067 25.6c6.864 0 13.727 0 20.8 0 0 42.239 0 84.481 0 128-6.864 0-13.727 0-20.8 0 0-42.239 0-84.481 0-128z"></path>
<path fill="#535353" d="M352 437.333c0 13.904 0 27.808 0 42.133-1.857 0.62-3.32 0.603-5.279 0.604-0.358 0-0.717 0.001-1.087 0.002-0.757 0-1.515-0-2.274-0.002-1.154-0.002-2.308 0-3.462 0.003-0.738-0-1.475-0.001-2.212-0.002-0.668-0-1.337-0.001-2.026-0.002-1.795-0.070-1.795-0.070-4.462-0.603 0-10.384 0-20.769 0-31.466 8.034-4.133 8.034-4.133 10.546-5.425 0.668-0.344 1.338-0.69 2.006-1.034 0.507-0.26 0.507-0.26 1.024-0.525 1.703-0.88 3.382-1.785 5.039-2.746 1.651-0.937 1.651-0.937 2.185-0.937z"></path>
</svg>
