<!-- Generated by IcoMoon.io -->
<svg version="1.1" xmlns="http://www.w3.org/2000/svg" width="512" height="512" viewBox="0 0 512 512">
<title></title>
<g id="icomoon-ignore">
</g>
<path fill="#000" d="M67.952 246.328v186.185h138.792c110.26 0 138.889-0.29 139.275-1.258 0.193-0.58 0.58-2.805 0.967-4.837l0.58-3.578h-26.212v-62.19l-4.545-4.256-4.642-4.159-0.29 35.302-0.193 35.302h-117.997v-111.227h117.997v9.671c0 10.64-0.193 10.445 6.673 9.092l2.998-0.58v-18.183h59.579l2.127-4.353c1.161-2.418 2.127-4.642 2.127-4.837 0-0.29-14.315-0.483-31.918-0.483h-31.918v-111.227h115.096l0.096 53.389v53.486l9.478 18.377v-127.959l0.096-127.862h-378.173v186.185zM184.015 125.429v55.614h-106.391v-111.227h106.391v55.614zM311.491 125.14l-0.29 55.42-117.513 0.483v-111.227h117.997l-0.193 55.323zM436.452 125.429v55.614h-115.096v-111.227h115.096v55.614zM184.015 246.328v55.614h-106.391v-111.227h106.391v55.614zM302.012 246.328v45.941l-100.105-0.483-0.29-45.748-0.194-45.651h100.588v45.941zM184.015 367.227v55.615h-106.391v-111.227h106.391v55.615z"></path>
<path fill="#000" d="M396.894 299.524c-11.993 24.373-14.798 29.5-16.733 29.887-1.161 0.29-15.862 2.514-32.595 4.933s-30.66 4.642-30.95 4.933c-0.29 0.193 10.156 10.832 23.31 23.599l23.696 23.116-5.126 30.273c-2.805 16.635-5.32 31.433-5.61 32.885-0.29 1.548-0.096 2.709 0.29 2.709 0.483 0 13.735-6.771 29.403-14.991 15.572-8.221 29.015-14.991 29.693-14.991s14.024 6.771 29.693 15.088c15.765 8.221 28.822 14.798 29.015 14.508 0.29-0.29-1.934-14.991-5.029-32.691l-5.512-32.304 18.183-17.894c10.059-9.865 20.892-20.311 24.083-23.31s5.61-5.707 5.32-5.9c-0.29-0.29-14.411-2.514-31.433-4.933-17.022-2.514-31.82-4.74-32.981-4.933-1.45-0.29-5.32-7.351-16.443-29.887-7.931-16.249-14.702-29.5-15.185-29.596-0.387 0-7.157 13.251-15.088 29.5z"></path>
</svg>
