<!-- Generated by IcoMoon.io -->
<svg version="1.1" xmlns="http://www.w3.org/2000/svg" width="544" height="512" viewBox="0 0 544 512">
<g id="icomoon-ignore">
</g>
<path fill="#545454" d="M-32-32c190.080 0 380.16 0 576 0 0 190.080 0 380.16 0 576-190.080 0-380.16 0-576 0 0-190.080 0-380.16 0-576z"></path>
<path fill="#000" d="M-32-32c190.080 0 380.16 0 576 0 0 190.080 0 380.16 0 576-190.080 0-380.16 0-576 0 0-190.080 0-380.16 0-576zM34.666 25.6c0 149.952 0 299.904 0 454.4 98.737 0 197.471 0 299.2 0 0-0.176 0-0.352 0-0.533-0.88 0-1.76 0-2.666 0 0-10.208 0-20.416 0-30.933-1.639 0.656-3.053 1.231-4.565 2.067-0.507 0.276-0.507 0.276-1.024 0.558-0.695 0.382-1.389 0.765-2.084 1.15-2.024 1.101-3.975 1.966-6.195 2.625 0.334-4.322 0.897-8.584 1.567-12.867 0.091-0.594 0.18-1.189 0.274-1.802 0.449-2.894 0.959-5.745 1.62-8.598 0.598-2.779 1.017-5.594 1.473-8.399 0.236-1.433 0.471-2.865 0.709-4.298 0.062-0.371 0.123-0.743 0.186-1.125 0.639-3.86 1.304-7.715 1.97-11.57 1.135-6.574 2.242-13.152 3.303-19.74 0.11-0.685 0.221-1.37 0.334-2.077 0.198-1.235 0.393-2.471 0.584-3.707 0.147-0.925 0.308-1.849 0.492-2.769 0.358-1.861 0.358-1.861-0.32-3.58-0.294-0.253-0.587-0.507-0.889-0.769-0.289-0.263-0.579-0.527-0.877-0.798-0.803-0.67-0.803-0.67-1.889-0.568 0-0.352 0-0.704 0-1.066-0.803-0.812-0.803-0.812-1.854-1.656-2.42-2.059-4.647-4.264-6.875-6.526-0.832-0.839-1.664-1.677-2.495-2.515-1.296-1.31-2.592-2.62-3.887-3.933-1.259-1.276-2.521-2.547-3.784-3.818-0.389-0.397-0.779-0.793-1.18-1.202-0.36-0.361-0.72-0.723-1.091-1.096-0.475-0.48-0.475-0.48-0.958-0.971-0.767-0.798-0.767-0.798-1.875-0.683 0-0.352 0-0.704 0-1.066-0.81-0.82-0.81-0.82-1.869-1.671-2.329-1.981-4.483-4.089-6.632-6.262-0.579-0.583-0.579-0.583-1.171-1.177-1.634-1.642-3.264-3.287-4.894-4.933-1.199-1.209-2.401-2.416-3.601-3.625-0.361-0.366-0.722-0.731-1.095-1.108-1.748-1.757-3.52-3.443-5.403-5.055-1.579-1.357-2.906-2.746-4.136-4.438 0.413-0.053 0.825-0.107 1.249-0.162 7.976-1.038 15.937-2.127 23.883-3.377 3.806-0.595 7.613-1.11 11.438-1.567 2.933-0.363 5.846-0.834 8.764-1.294 1.6-0.248 3.199-0.491 4.8-0.733 0.44-0.066 0.88-0.134 1.333-0.202 3.462-0.519 6.928-0.993 10.396-1.454 1.356-0.185 2.71-0.377 4.064-0.579 5.497-0.817 5.497-0.817 8.082-0.788 2.347-0.089 3.503-0.254 5.458-1.577 2.481-3.421 3.945-7.461 5.545-11.341 1.308-3.111 2.865-6.099 4.401-9.102 0.862-1.691 1.712-3.387 2.561-5.085 0.163-0.326 0.326-0.651 0.495-0.988 1.669-3.343 3.284-6.714 4.868-10.098 2.549-5.428 5.283-10.769 7.981-16.125 0.839-1.666 1.676-3.332 2.514-4.998 0.429-0.852 0.858-1.702 1.288-2.554 0.633-1.253 1.263-2.508 1.893-3.763 0.191-0.377 0.382-0.754 0.579-1.142 1.026-2.053 1.873-4.066 2.541-6.271 1.537 1.341 2.302 2.811 3.202 4.629 0.457 0.917 0.457 0.917 0.923 1.853 0.325 0.662 0.65 1.323 0.975 1.986 0.336 0.678 0.673 1.357 1.009 2.035 2.176 4.399 4.317 8.813 6.399 13.256 1.977 4.207 4.071 8.355 6.159 12.509 1.478 2.944 2.957 5.888 4.433 8.834 0.195 0.389 0.39 0.78 0.592 1.181 2.745 5.479 5.447 10.973 8.048 16.523 2.059 4.909 2.059 4.909 5.060 9.196 1.301 0.213 2.594 0.396 3.899 0.56 0.401 0.053 0.802 0.106 1.215 0.16 0.865 0.114 1.73 0.226 2.595 0.339 6.321 0.818 12.635 1.663 18.923 2.709 5.62 0.934 11.257 1.702 16.909 2.423 3.351 0.433 6.672 0.928 9.993 1.556 2.356 0.43 4.726 0.757 7.099 1.088 0.471 0.067 0.944 0.134 1.43 0.204 2.777 0.392 5.553 0.749 8.336 1.097 0-96.624 0-193.248 0-292.8-151.712 0-303.424 0-459.733 0z"></path>
<path fill="#fdfdfd" d="M-32-32c190.080 0 380.16 0 576 0 0 190.080 0 380.16 0 576-190.080 0-380.16 0-576 0 0-190.080 0-380.16 0-576zM1.599-10.133c0 172.833 0 345.664 0 523.734 173.712 0 347.425 0 526.4 0 0.001-26.73 0.001-26.73-0.017-53.46-0.003-2.976-0.007-5.95-0.010-8.925-0.004-4.372-0.010-8.743-0.015-13.115-0.008-6.585-0.015-13.168-0.021-19.753-0.011-11.045-0.024-22.090-0.037-33.136-0.016-14.934-0.033-29.87-0.048-44.803-0.039-35.858-0.079-71.716-0.118-107.574-0.088-80.179-0.177-160.358-0.267-242.966-173.536 0-347.072 0-525.867 0z"></path>
<path fill="#fefefe" d="M181.867 185.066c49.28 0 98.56 0 149.333 0 0 41.536 0 83.072 0 125.867-9.924 1.654-19.815 3.184-29.781 4.497-0.677 0.089-1.355 0.178-2.053 0.271-0.675 0.089-1.351 0.178-2.046 0.269-5.176 0.689-10.337 1.452-15.495 2.267-2.916 0.46-5.828 0.884-8.759 1.231 2.077 2.567 4.337 4.86 6.788 7.069 4.406 4.020 8.584 8.262 12.779 12.498 1.522 1.537 3.048 3.072 4.573 4.606 0.346 0.351 0.692 0.701 1.049 1.062 0.478 0.481 0.478 0.481 0.967 0.973 0.28 0.283 0.56 0.565 0.848 0.856 0.728 0.729 0.728 0.729 1.796 1.202 0 0.352 0 0.704 0 1.066 0.308 0.135 0.615 0.269 0.933 0.406 1.353 0.745 2.249 1.584 3.334 2.682 0.413 0.414 0.826 0.829 1.251 1.257 0.44 0.448 0.882 0.896 1.335 1.357 0.684 0.689 0.684 0.689 1.382 1.391 1.457 1.466 2.91 2.937 4.364 4.408 1.457 1.473 2.916 2.943 4.375 4.413 0.909 0.916 1.815 1.831 2.721 2.749 0.409 0.413 0.819 0.826 1.241 1.252 0.361 0.365 0.721 0.73 1.092 1.106 0.864 0.89 0.864 0.89 1.971 1.38 0 0.352 0 0.704 0 1.066 0.462 0.198 0.462 0.198 0.933 0.399 1.454 0.808 2.346 1.447 3.333 2.8-0.118 1.272-0.308 2.478-0.533 3.733-0.176 1.108-0.35 2.216-0.523 3.325-0.214 1.336-0.429 2.673-0.644 4.008-0.057 0.358-0.115 0.714-0.174 1.082-1.068 6.624-2.192 13.238-3.335 19.851-0.874 5.064-1.723 10.131-2.558 15.2-0.949 5.753-1.97 11.49-3.060 17.219-1.509 7.471-1.509 7.471-1.973 15.048 3.486-1.468 6.795-3.166 10.104-4.99 2.584-1.41 2.584-1.41 3.762-1.41 0 10.208 0 20.416 0 30.933 0.88 0 1.76 0 2.666 0 0 0.176 0 0.352 0 0.533-50.512 0-101.024 0-153.066 0 0.352-0.176 0.704-0.352 1.066-0.533 0-46.991 0-93.985 0-142.4 30.976-0.176 61.952-0.352 93.867-0.533-15.271-18.468-15.271-18.468-33.844-22.642-0.755 0.034-1.51 0.076-2.262 0.136-2.192 0.152-4.363 0.172-6.561 0.173-5.225 0.065-10.446 0.308-15.666 0.533-17.589 0.495-17.589 0.495-35.533 1 0-43.12 0-86.24 0-130.667z"></path>
<path fill="#fefefe" d="M181.867 25.6c49.28 0 98.56 0 149.333 0 0 45.584 0 91.168 0 138.133-49.281 0-98.56 0-149.333 0 0-45.584 0-91.168 0-138.133z"></path>
<path fill="#fefefe" d="M352 25.6c46.816 0 93.632 0 141.866 0 0 45.584 0 91.168 0 138.133-46.816 0-93.632 0-141.866 0 0-45.584 0-91.168 0-138.133z"></path>
<path fill="#fefefe" d="M35.2 337.067c41.536 0 83.072 0 125.867 0 0 46.991 0 93.985 0 142.4 0.352 0.176 0.704 0.352 1.067 0.533-41.888 0-83.775 0-126.933 0 0-47.168 0-94.336 0-142.934z"></path>
<path fill="#fefefe" d="M35.2 25.6c41.536 0 83.072 0 125.867 0 0 45.584 0 91.168 0 138.133-41.536 0-83.072 0-125.867 0 0-45.584 0-91.168 0-138.133z"></path>
<path fill="#fefefe" d="M35.2 185.066c41.536 0 83.072 0 125.867 0 0 43.12 0 86.24 0 130.666-41.536 0-83.072 0-125.867 0 0-43.12 0-86.24 0-130.666z"></path>
<path fill="#fefefe" d="M352 185.066c46.816 0 93.632 0 141.866 0 0 43.823 0 87.648 0 132.8-4.533-0.324-8.952-0.662-13.433-1.3-0.477-0.065-0.954-0.13-1.445-0.197-2.318-0.322-4.618-0.685-6.915-1.124-4.796-0.891-9.641-1.486-14.473-2.146-1.978-0.271-3.955-0.541-5.933-0.814-0.728-0.101-0.728-0.101-1.473-0.204-3.675-0.512-7.337-1.089-11-1.684-2.305-0.368-4.599-0.673-6.924-0.889-0.485-0.048-0.969-0.096-1.469-0.144-0.963-0.091-1.927-0.168-2.892-0.233-3.411-0.368-3.411-0.368-4.757-1.709-0.719-1.11-1.277-2.218-1.82-3.423-0.191-0.384-0.384-0.766-0.579-1.161-0.596-1.204-1.161-2.418-1.719-3.639-2.156-4.673-4.454-9.27-6.767-13.867-9.678-19.268-9.678-19.268-13.224-26.79-1.584-3.359-3.224-6.688-4.899-10.001-0.803-1.588-1.59-3.184-2.37-4.784-0.217-0.442-0.435-0.885-0.659-1.341-0.423-0.863-0.845-1.726-1.264-2.591-0.92-2.143-0.92-2.143-2.649-3.559-0.12 0.414-0.24 0.828-0.363 1.255-0.938 2.597-2.172 5.003-3.42 7.464-0.27 0.537-0.54 1.074-0.818 1.628-0.864 1.719-1.731 3.436-2.599 5.154-1.13 2.239-2.257 4.479-3.384 6.718-0.279 0.554-0.557 1.107-0.844 1.678-2.024 4.041-3.985 8.11-5.916 12.197-1.8 3.805-3.666 7.57-5.563 11.327-1.057 2.099-2.106 4.202-3.157 6.305-0.443 0.885-0.885 1.772-1.329 2.658-0.331 0.661-0.331 0.661-0.668 1.335-2.202 4.404-4.404 8.81-6.607 13.214-0.176 0-0.352 0-0.533 0 0-40.304 0-80.608 0-122.133z"></path>
<path fill="#fefefe" d="M493.867 333.867c0 48.224 0 96.447 0 146.133-47.344 0-94.688 0-143.467 0 0.529-0.176 1.055-0.352 1.6-0.533 0-13.904 0-27.808 0-42.133 6.743-3.678 13.463-7.343 20.3-10.834 1.026-0.524 2.050-1.050 3.075-1.575 0.666-0.341 1.332-0.682 1.998-1.019 1.63-0.834 3.237-1.692 4.821-2.61 0.606-0.348 1.213-0.694 1.837-1.051 0.534-0.315 1.069-0.631 1.62-0.957 1.899-0.76 2.798-0.648 4.75-0.087 1.524 0.662 1.524 0.662 3.106 1.498 0.881 0.461 0.881 0.461 1.779 0.933 0.621 0.332 1.241 0.663 1.882 1.003 0.654 0.344 1.306 0.688 1.96 1.032 1.301 0.685 2.6 1.371 3.897 2.060 1.481 0.785 2.964 1.566 4.452 2.341 3.618 1.89 7.224 3.805 10.818 5.74 1.235 0.665 2.471 1.329 3.707 1.993 0.313 0.168 0.624 0.336 0.945 0.51 5.495 2.954 11.031 5.822 16.581 8.668 4.933 2.531 9.819 5.13 14.642 7.866 1.656 0.925 3.327 1.791 5.031 2.623-0.080-0.457-0.080-0.457-0.162-0.923-1.050-5.988-2.082-11.978-3.071-17.976-0.695-4.216-1.447-8.414-2.252-12.611-0.513-2.81-0.946-5.632-1.381-8.454-0.419-2.69-0.887-5.362-1.401-8.035-0.678-3.532-1.252-7.073-1.799-10.628-0.368-2.371-0.769-4.731-1.231-7.085-0.203-1.043-0.389-2.089-0.575-3.135-0.277-1.459-0.588-2.854-0.958-4.287-1.178-5.111-1.178-5.111 0.012-7.265 1.408-1.809 3.087-3.264 4.887-4.671 3.378-2.689 6.466-5.659 9.498-8.728 0.579-0.583 0.579-0.583 1.171-1.177 1.223-1.229 2.442-2.459 3.663-3.69 1.61-1.623 3.221-3.246 4.834-4.867 0.361-0.366 0.722-0.731 1.095-1.108 2.078-2.089 4.22-4.058 6.451-5.981 1.216-1.077 2.322-2.23 3.42-3.426 0.632-0.668 0.632-0.668 1.278-1.349 0.866-0.92 1.726-1.848 2.575-2.783 0.423-0.44 0.845-0.881 1.28-1.334 0.558-0.601 0.558-0.601 1.127-1.214 1.407-0.871 1.407-0.871 6.207-0.871z"></path>
<path fill="#535353" d="M352 437.333c0 13.904 0 27.808 0 42.133-1.857 0.62-3.32 0.603-5.279 0.604-0.358 0-0.717 0.001-1.087 0.002-0.757 0-1.515-0-2.274-0.002-1.154-0.002-2.308 0-3.462 0.003-0.738-0-1.475-0.001-2.212-0.002-0.668-0-1.337-0.001-2.026-0.002-1.795-0.070-1.795-0.070-4.462-0.603 0-10.384 0-20.769 0-31.466 8.034-4.133 8.034-4.133 10.546-5.425 0.668-0.344 1.338-0.69 2.006-1.034 0.507-0.26 0.507-0.26 1.024-0.525 1.703-0.88 3.382-1.785 5.039-2.746 1.651-0.937 1.651-0.937 2.185-0.937z"></path>
</svg>
