<!-- Generated by IcoMoon.io -->
<svg version="1.1" xmlns="http://www.w3.org/2000/svg" width="528" height="512" viewBox="0 0 528 512">
<g id="icomoon-ignore">
</g>
<path fill="#000" d="M-32-32c190.080 0 380.16 0 576 0 0 190.080 0 380.16 0 576-190.080 0-380.16 0-576 0 0-190.080 0-380.16 0-576z"></path>
<path fill="#fefefe" d="M-32-32c190.080 0 380.16 0 576 0 0 190.080 0 380.16 0 576-190.080 0-380.16 0-576 0 0-190.080 0-380.16 0-576zM9.6 0.533c0 166.496 0 332.992 0 504.533 168.608 0 337.216 0 510.933 0 0-165.792 0-331.584 0-502.4-0.704 0-1.408 0-2.134 0 0-0.704 0-1.407 0-2.134-167.904 0-335.808 0-508.8 0z"></path>
<path fill="#fefefe" d="M379.733 185.066c37.664 0 75.328 0 114.133 0 0 43.823 0 87.648 0 132.8-4.533-0.324-8.952-0.662-13.433-1.3-0.477-0.065-0.954-0.13-1.445-0.197-2.318-0.322-4.618-0.685-6.915-1.124-4.796-0.891-9.641-1.486-14.473-2.146-1.978-0.271-3.955-0.541-5.933-0.814-0.728-0.101-0.728-0.101-1.473-0.204-3.675-0.512-7.337-1.089-11-1.684-2.305-0.368-4.599-0.673-6.924-0.889-0.485-0.048-0.969-0.096-1.469-0.144-0.963-0.091-1.927-0.168-2.892-0.233-3.411-0.368-3.411-0.368-4.757-1.709-0.719-1.11-1.277-2.218-1.82-3.423-0.191-0.384-0.384-0.766-0.579-1.161-0.596-1.204-1.161-2.418-1.719-3.639-2.156-4.673-4.454-9.27-6.767-13.867-9.678-19.268-9.678-19.268-13.224-26.79-1.584-3.359-3.224-6.688-4.899-10.001-0.803-1.588-1.59-3.184-2.37-4.784-0.326-0.664-0.326-0.664-0.659-1.341-0.423-0.863-0.845-1.726-1.264-2.591-0.92-2.143-0.92-2.143-2.649-3.559-0.12 0.414-0.24 0.828-0.363 1.255-0.938 2.597-2.172 5.003-3.42 7.464-0.27 0.537-0.54 1.074-0.818 1.628-0.864 1.719-1.731 3.436-2.599 5.154-1.13 2.239-2.257 4.479-3.384 6.718-0.279 0.554-0.557 1.107-0.844 1.678-2.025 4.041-3.985 8.111-5.916 12.197-1.795 3.794-3.656 7.55-5.547 11.296-1.115 2.212-2.219 4.428-3.326 6.643-0.471 0.945-0.945 1.889-1.416 2.834-0.235 0.47-0.47 0.941-0.712 1.425-1.929 3.858-3.858 7.716-5.788 11.575-0.176-0.529-0.352-1.055-0.533-1.6-0.352 0-0.704 0-1.066 0 0.044 0.495 0.088 0.99 0.134 1.5-0.134 1.7-0.134 1.7-0.991 2.592-1.661 0.921-2.86 0.912-4.755 0.925-0.676 0.012-1.353 0.024-2.050 0.036-0.712 0.006-1.425 0.010-2.137 0.015-1.394 0.010-2.786 0.026-4.179 0.050-0.618 0.003-1.235 0.007-1.872 0.011-1.955 0.23-3.233 0.868-4.95 1.805-1.506 0.236-1.506 0.236-3.034 0.3-2.039 0.127-3.996 0.308-6 0.7-6.689 1.288-13.479 2.077-20.23 2.964-6.007 0.791-12.011 1.604-18.003 2.502-0.872 0.127-0.872 0.127-1.762 0.255-0.805 0.123-0.805 0.123-1.626 0.248-0.702 0.106-0.702 0.106-1.418 0.213-1.276 0.286-2.241 0.748-3.394 1.35 2.562 3.135 5.385 5.849 8.363 8.584 1.057 0.979 2.113 1.959 3.169 2.94 0.276 0.255 0.551 0.512 0.836 0.776 3.871 3.6 7.683 7.264 11.495 10.925 3.098 2.971 6.216 5.918 9.384 8.814 21.909 20.067 21.909 20.067 22.62 27.874-0.005 4.836-1.443 9.164-3.293 13.579-1.384 3.428-1.8 7.074-2.311 10.715-0.281 1.922-0.625 3.832-0.964 5.743-0.736 4.236-1.436 8.476-2.134 12.716-0.949 5.753-1.97 11.49-3.060 17.219-1.464 7.207-1.464 7.207-1.973 14.515 3.462-1.723 6.921-3.449 10.38-5.175 1.172-0.585 2.344-1.17 3.517-1.753 6.197-3.087 12.377-6.196 18.494-9.44 3.046-1.615 6.115-3.175 9.208-4.699 3.656-1.815 7.291-3.661 10.9-5.566 0.401-0.211 0.803-0.422 1.216-0.639 2.387-1.259 4.762-2.539 7.13-3.836 1.107-0.597 2.214-1.195 3.321-1.791 0.519-0.289 1.038-0.578 1.573-0.875 0.491-0.263 0.981-0.526 1.488-0.798 0.649-0.355 0.649-0.355 1.312-0.719 2.248-0.748 3.932-0.168 6.053 0.752 0.522 0.276 1.044 0.552 1.582 0.837 0.587 0.308 1.173 0.615 1.779 0.933 0.621 0.332 1.241 0.663 1.882 1.004 0.654 0.344 1.306 0.688 1.96 1.032 1.301 0.685 2.6 1.371 3.897 2.060 1.481 0.785 2.964 1.566 4.452 2.341 3.618 1.89 7.224 3.805 10.819 5.74 1.235 0.665 2.471 1.329 3.707 1.993 0.313 0.168 0.624 0.336 0.945 0.51 5.495 2.954 11.031 5.822 16.581 8.668 4.933 2.531 9.819 5.13 14.642 7.866 1.656 0.925 3.327 1.791 5.031 2.623-0.053-0.305-0.107-0.61-0.162-0.923-1.050-5.988-2.082-11.978-3.071-17.976-0.695-4.216-1.447-8.414-2.252-12.611-0.513-2.81-0.946-5.632-1.382-8.454-0.419-2.69-0.886-5.362-1.401-8.035-0.678-3.533-1.252-7.073-1.799-10.628-0.368-2.372-0.769-4.731-1.231-7.085-0.202-1.043-0.389-2.089-0.575-3.135-0.277-1.459-0.588-2.854-0.959-4.287-1.178-5.111-1.178-5.111 0.012-7.265 1.408-1.809 3.087-3.264 4.887-4.671 3.378-2.689 6.467-5.659 9.498-8.728 0.387-0.388 0.773-0.776 1.171-1.177 1.223-1.228 2.442-2.459 3.663-3.69 1.61-1.623 3.221-3.246 4.834-4.867 0.541-0.548 0.541-0.548 1.095-1.108 2.078-2.089 4.221-4.057 6.452-5.981 1.213-1.074 2.31-2.227 3.399-3.426 0.42-0.445 0.839-0.89 1.271-1.349 0.861-0.919 1.712-1.846 2.555-2.783 0.421-0.44 0.842-0.881 1.276-1.334 0.37-0.4 0.739-0.801 1.119-1.214 1.468-0.871 1.468-0.871 6.801-0.871 0 48.224 0 96.447 0 146.133-47.52 0-95.040 0-144 0 0.529-0.176 1.055-0.352 1.6-0.533 0-4.928 0-9.856 0-14.933-2.887 1.339-5.762 2.688-8.63 4.066-0.976 0.466-1.955 0.925-2.938 1.376-1.413 0.651-2.814 1.326-4.214 2.006-0.44 0.197-0.881 0.394-1.334 0.596-1.224 0.611-2.175 1.127-3.151 2.089-0.517 1.62-0.606 3.107-0.533 4.8 0.88 0 1.76 0 2.666 0 0 0.176 0 0.352 0 0.533-50.512 0-101.024 0-153.066 0 0.352-0.176 0.704-0.352 1.066-0.533 0-42.591 0-85.184 0-129.067 31.151 0 62.304 0 94.4 0-0.176-11.515-0.176-11.515-5.275-20.329-0.389-0.503-0.389-0.503-0.785-1.017-2.003-2.567-4.14-4.988-6.339-7.387-0.319-0.356-0.639-0.712-0.969-1.079-10.591-11.695-20.94-15.315-36.537-16.189-14.792-0.671-29.821 0.882-44.495 1.735 0-39.248 0-78.496 0-118.933 49.28 0 98.56 0 149.333 0 0 23.936 0 47.872 0 72.533 3.933-0.094 3.933-0.094 5.237-1.364 0.308-0.536 0.308-0.536 0.622-1.082 0.242-0.403 0.484-0.807 0.733-1.221 0.245-0.44 0.49-0.88 0.741-1.333 0.555-0.935 1.109-1.871 1.664-2.806 0.278-0.478 0.555-0.957 0.841-1.451 1.255-2.138 2.592-4.221 3.927-6.309 3.793-5.994 7.543-12.016 11.3-18.034 1.366-2.189 2.733-4.377 4.101-6.567 0.333-0.533 0.666-1.067 1.010-1.617 2.043-3.268 4.096-6.528 6.157-9.784 3.167-5.002 6.307-10.023 9.389-15.077 0.522-0.841 1.077-1.665 1.641-2.477 0.925-1.685 0.925-1.685 1.169-5.546z"></path>
<path fill="#000" d="M178.518 141.262c2.688 0.002 5.374 0 8.061-0.001 4.404-0.002 8.808-0.001 13.21-0 3.591 0.001 7.184 0.001 10.775 0 0.519 0 1.036 0 1.571 0 1.054 0 2.108-0 3.164-0 9.804-0.001 19.61 0 29.415 0.002 8.341 0.002 16.683 0.001 25.024-0 9.775-0.002 19.55-0.004 29.325-0.002 1.050 0 2.101 0 3.151 0 0.774 0 0.774 0 1.565 0 3.57 0 7.139-0 10.71-0.001 21.754-0.007 43.495 0.045 65.243 0.606 0.127 5.451 0.251 10.9 0.313 16.352 0.038 3.345 0.082 6.687 0.171 10.030 0.594 23.244 0.594 23.244-6.101 30.844-1.108 1.286-1.95 2.702-2.815 4.16-0.565 0.883-1.132 1.766-1.7 2.648-0.634 0.991-1.269 1.982-1.901 2.972-0.308 0.481-0.615 0.962-0.934 1.457-1.362 2.13-2.715 4.266-4.065 6.404-0.255 0.405-0.512 0.81-0.775 1.227-2.509 3.978-4.998 7.968-7.49 11.959-2.297 3.679-4.606 7.349-6.928 11.012-1.529 2.417-3.049 4.84-4.561 7.268-0.362 0.582-0.724 1.162-1.097 1.761-0.709 1.139-1.418 2.279-2.125 3.419-0.323 0.519-0.646 1.036-0.978 1.571-0.43 0.691-0.43 0.691-0.866 1.396-0.269 0.414-0.538 0.829-0.814 1.257-0.211 0.406-0.421 0.813-0.639 1.233-0.962 0.901-0.962 0.901-5.228 0.901 0-23.936 0-47.872 0-72.533-49.281 0-98.56 0-149.333 0 0 39.248 0 78.496 0 118.933 9.637-0.659 19.272-1.32 29.2-2 34.183-1.065 34.183-1.065 47.944 11.779 1.791 1.755 3.481 3.591 5.156 5.454 0.329 0.358 0.659 0.716 0.998 1.084 2.211 2.413 4.291 4.899 6.296 7.485 0.257 0.322 0.514 0.644 0.779 0.975 5.11 6.577 4.026 10.353 4.026 19.489-46.464 0-92.928 0-140.799 0 0-68.816 0-137.631 0-208.533 29.681-0.619 29.681-0.619 43.053-0.604z"></path>
<path fill="#fefefe" d="M352 25.6c46.816 0 93.632 0 141.866 0 0 45.584 0 91.168 0 138.133-37.664 0-75.328 0-114.133 0 0-7.216 0-14.433 0-21.867-9.152 0-18.304 0-27.734 0 0-38.368 0-76.736 0-116.267z"></path>
<path fill="#fefefe" d="M35.2 337.067c32.912 0 65.824 0 99.734 0 0 4.4 0 8.8 0 13.333 8.624 0 17.248 0 26.133 0 0 42.591 0 85.184 0 129.067 0.352 0.176 0.704 0.352 1.067 0.533-41.888 0-83.775 0-126.933 0 0-47.168 0-94.336 0-142.934z"></path>
<path fill="#fefefe" d="M181.867 25.6c49.28 0 98.56 0 149.333 0 0 38.368 0 76.736 0 116.267-49.281 0-98.56 0-149.333 0 0-38.368 0-76.736 0-116.267z"></path>
<path fill="#fefefe" d="M35.2 25.6c41.361 0 82.72 0 125.333 0 0 38.193 0 76.384 0 115.733-8.272 0-16.544 0-25.066 0 0 7.392 0 14.785 0 22.4-33.088 0-66.176 0-100.267 0 0-45.584 0-91.168 0-138.133z"></path>
<path fill="#fefefe" d="M35.2 185.066c33.087 0 66.176 0 100.267 0 0.021 29.973 0.021 29.973 0.026 42.567 0.001 2.877 0.002 5.754 0.003 8.631 0 0.361 0 0.721 0 1.092 0.002 5.803 0.007 11.603 0.011 17.406 0.006 5.965 0.008 11.931 0.009 17.895 0 3.346 0.002 6.692 0.006 10.038 0.003 3.156 0.005 6.312 0.004 9.469 0 1.152 0.001 2.303 0.003 3.455 0.002 1.587 0.002 3.175 0 4.762 0.002 0.665 0.002 0.665 0.005 1.342-0.011 4.695-0.34 9.296-0.602 14.007-32.912 0-65.824 0-99.733 0 0-43.12 0-86.24 0-130.667z"></path>
<path fill="#565656" d="M34.666 25.6c0.176 0 0.352 0 0.533 0 0 45.584 0 91.168 0 138.133 33.088 0 66.176 0 100.267 0 0 7.040 0 14.079 0 21.333-33.088 0-66.176 0-100.267 0 0 43.12 0 86.24 0 130.666 32.912 0 65.824 0 99.733 0 0-3.168 0-6.336 0-9.601 0.177 0 0.352 0 0.533 0 0 14.608 0 29.216 0 44.267-0.177 0-0.352 0-0.533 0 0-4.4 0-8.8 0-13.333-32.912 0-65.824 0-99.733 0 0 47.168 0 94.336 0 142.934-0.176 0-0.352 0-0.533 0 0-149.952 0-299.904 0-454.4z"></path>
<path fill="#535353" d="M161.067 350.4c6.864 0 13.727 0 20.8 0 0 42.591 0 85.184 0 129.067-1.654 0.827-3.402 0.61-5.217 0.604-0.615 0-0.615 0-1.243 0.002-0.868 0-1.736-0-2.603-0.002-1.331-0.002-2.662 0-3.993 0.003-0.843-0-1.685-0.001-2.528-0.002-0.6 0.002-0.6 0.002-1.21 0.003-2.817-0.012-2.817-0.012-4.006-0.608 0-42.591 0-85.184 0-129.067z"></path>
<path fill="#585858" d="M493.867 25.6c0.176 0 0.352 0 0.533 0 0 96.448 0 192.896 0 292.267-0.176 0-0.352 0-0.533 0 0-43.824 0-87.649 0-132.8-37.664 0-75.328 0-114.133 0 0-7.040 0-14.079 0-21.333 37.664 0 75.328 0 114.133 0 0-45.584 0-91.168 0-138.133z"></path>
<path fill="#565656" d="M160.534 25.6c7.040 0 14.079 0 21.333 0 0 38.193 0 76.384 0 115.733-23.95 0.614-23.95 0.614-34.9 0.566-1.139-0.002-2.277-0.006-3.416-0.007-2.695-0.006-5.389-0.015-8.084-0.026 0-0.177 0-0.352 0-0.533 8.272 0 16.544 0 25.066 0 0-38.192 0-76.384 0-115.733z"></path>
<path fill="#545454" d="M331.2 25.6c6.865 0 13.728 0 20.8 0 0 38.193 0 76.384 0 115.733-6.865 0-13.728 0-20.8 0 0-38.192 0-76.384 0-115.733z"></path>
<path fill="#545454" d="M352 464.533c0 4.928 0 9.856 0 14.933-1.857 0.62-3.32 0.603-5.279 0.604-0.358 0-0.717 0.001-1.087 0.002-0.757 0-1.515-0-2.274-0.002-1.154-0.002-2.308 0-3.462 0.003-0.738-0-1.475-0.001-2.212-0.002-0.668-0-1.337-0.001-2.026-0.002-1.56-0.060-2.948-0.24-4.462-0.603 0-1.584 0-3.168 0-4.8 5.145-2.733 10.298-5.445 15.5-8.067 0.409-0.208 0.818-0.416 1.24-0.63 2.868-1.437 2.868-1.437 4.060-1.437z"></path>
<path fill="#636363" d="M331.2 257.6c1.76 0 3.52 0 5.334 0-0.352 0.704-0.704 1.408-1.066 2.134-1.408 0-2.816 0-4.267 0 0-0.704 0-1.408 0-2.134z"></path>
</svg>
