<!-- Generated by IcoMoon.io -->
<svg version="1.1" xmlns="http://www.w3.org/2000/svg" width="512" height="512" viewBox="0 0 512 512">
<title></title>
<g id="icomoon-ignore">
</g>
<path fill="#000" d="M155.171 11.411v11.409h-125.504l-0.096 3.043c0 3.803 0 447.441 0 453.050l0.096 4.089 125.028 0.476 0.285 14.262 0.19 14.261 201.091-0.096 0.57-27.954 125.599-0.476-0.096-152.601c0-83.954 0-187.59-0.096-230.375v-77.68h-125.505v-22.82h-201.566v11.409zM312.050 97.457v60.375h-120.75v-59.709c0-32.898 0.285-60.090 0.666-60.374 0.285-0.38 27.477-0.666 60.375-0.666h59.709v60.374zM152.508 56.288l2.187 4.089v115.996l-100.308 0.476v-124.552h96.029l2.092 3.993zM457.521 114.572v62.277h-100.784v-124.552h100.784v62.277zM319.656 254.813v59.899h-120.75v-119.799h120.75v59.9zM154.695 211.267c0.285 2.282 0.476 23.104 0.285 46.399l-0.285 42.31-100.308 0.476v-93.178h99.738l0.571 3.993zM457.521 253.862v46.588h-100.784v-93.178h100.784v46.589zM154.314 333.252c0.856 3.709 1.046 113.429 0.285 117.327l-0.571 2.947h-99.642v-123.602l99.357 0.476 0.571 2.852zM457.521 392.201v62.277h-100.784v-124.553h100.784v62.277zM315.853 409.315v60.375h-119.513l-0.571-18.731c-0.856-23.959-0.856-78.82 0-91.846l0.571-10.173h119.513v60.375z"></path>
</svg>
