<!-- Generated by IcoMoon.io -->
<svg version="1.1" xmlns="http://www.w3.org/2000/svg" width="528" height="512" viewBox="0 0 528 512">
<g id="icomoon-ignore">
</g>
<path fill="#545454" d="M15.059 0c168.96 0 337.92 0 512 0 0 168.96 0 337.92 0 512-168.96 0-337.92 0-512 0 0-168.96 0-337.92 0-512z"></path>
<path fill="#545454" d="M381.992 26.074c40.050 0 80.101 0 121.363 0 0 149.248 0 298.496 0 452.267-0.313 0-0.626 0-0.947 0 0 0.469 0 0.938 0 1.422-39.737 0-79.474 0-120.415 0 0-149.717 0-299.435 0-453.689z"></path>
<path fill="#000" d="M182.407 8.534c65.863 0 131.726 0 199.585 0 0 161.451 0 322.901 0 489.243-46.469 0-46.469 0-68.692-0.072-0.805-0.002-1.611-0.005-2.416-0.007-1.253-0.003-2.507-0.008-3.761-0.012-4.341-0.014-8.681-0.027-13.021-0.040-7.731-0.023-15.463-0.047-23.195-0.071-7.476-0.024-14.953-0.046-22.43-0.069-0.466-0.002-0.934-0.003-1.415-0.003-2.344-0.007-4.686-0.014-7.030-0.022-19.209-0.058-38.417-0.118-57.626-0.177-0.534-14.443-0.543-28.885-0.536-43.336 0.001-3.572 0-7.145-0.001-10.717-0.002-7.034-0.002-14.069-0.001-21.102 0.001-6.24 0.001-12.481 0.001-18.722 0-0.421 0-0.839 0-1.272 0-1.707-0-3.414-0-5.12-0.001-16.050 0-32.101 0.002-48.15 0.002-13.447 0.002-26.893 0-40.339-0.007-43.229-0.012-86.458 0.172-192.661 0.004-1.204 0.007-2.406 0.010-3.61 0.099-34.58 0.231-69.161 0.354-103.741z"></path>
<path fill="#fefefe" d="M15.059 0c168.96 0 337.92 0 512 0 0 168.96 0 337.92 0 512-168.96 0-337.92 0-512 0 0-168.96 0-337.92 0-512zM181.931 8.534c0 5.788 0 11.577 0 17.541-41.927 0-83.854 0-127.052 0 0 149.874 0 299.748 0 454.163 41.927 0 83.854 0 127.052 0 0 5.788 0 11.577 0 17.541 66.019 0 132.039 0 200.060 0 0-5.945 0-11.89 0-18.015 39.737 0 79.474 0 120.415 0 0-0.469 0-0.938 0-1.422 0.313 0 0.626 0 0.949 0 0-149.248 0-298.496 0-452.267-40.050 0-80.101 0-121.363 0 0-5.788 0-11.577 0-17.54-66.019 0-132.039 0-200.060 0z"></path>
<path fill="#fefefe" d="M77.162 179.2c34.574 0 69.148 0 104.77 0 0 43.803 0 87.609 0 132.739-34.418 0-68.835 0-104.296 0 0 0.782 0 1.565 0 2.37-0.156 0-0.313 0-0.474 0 0-44.587 0-89.173 0-135.111z"></path>
<path fill="#fefefe" d="M230.762 179.2c35.2 0 70.4 0 106.666 0 0 42.397 0 84.793 0 128.474-35.2 0-70.4 0-106.666 0 0-42.395 0-84.793 0-128.474z"></path>
<path fill="#fefefe" d="M77.162 329.007c0.156 0.469 0.313 0.938 0.474 1.422 34.418 0 68.835 0 104.296 0 0 41.614 0 83.228 0 126.103-34.574 0-69.148 0-104.77 0 0-42.084 0-84.167 0-127.526z"></path>
<path fill="#fefefe" d="M381.992 179.2c32.697 0 65.394 0 99.082 0 0 44.587 0 89.173 0 135.111-0.156 0-0.313 0-0.474 0 0-0.782 0-1.565 0-2.37-32.541 0-65.081 0-98.608 0 0-43.805 0-87.609 0-132.739z"></path>
<path fill="#fdfdfd" d="M230.762 338.489c35.2 0 70.4 0 106.666 0 0 39.111 0 78.222 0 118.519-35.2 0-70.4 0-106.666 0 0-39.111 0-78.222 0-118.519z"></path>
<path fill="#fefefe" d="M480.6 329.007c0.156 0 0.313 0 0.474 0 0 42.24 0 84.48 0 128-32.697 0-65.394 0-99.082 0 0-41.771 0-83.541 0-126.578 32.541 0 65.081 0 98.608 0 0-0.469 0-0.938 0-1.422z"></path>
<path fill="#fefefe" d="M77.162 48.356c34.574 0 69.148 0 104.77 0 0 36.921 0 73.842 0 111.882-34.574 0-69.148 0-104.77 0 0-36.921 0-73.842 0-111.882z"></path>
<path fill="#fefefe" d="M381.992 48.356c32.697 0 65.394 0 99.082 0 0 36.921 0 73.842 0 111.882-32.697 0-65.394 0-99.082 0 0-36.921 0-73.842 0-111.882z"></path>
<path fill="#fdfdfd" d="M230.762 48.356c35.2 0 70.4 0 106.666 0 0 33.010 0 66.020 0 100.029-35.2 0-70.4 0-106.666 0 0-33.010 0-66.019 0-100.029z"></path>
</svg>
