<!-- Generated by IcoMoon.io -->
<svg version="1.1" xmlns="http://www.w3.org/2000/svg" width="512" height="512" viewBox="0 0 512 512">
<title></title>
<g id="icomoon-ignore">
</g>
<path fill="#000" d="M39.581 99.93v62.339h-22.107v187.461h22.107v124.68h428.684l-0.442-59.952c-0.353-32.983-0.265-61.013 0.089-62.339l0.531-2.387h26.085l-0.089-93.465v-93.553l-25.998-0.53v-124.591h-428.861v62.339zM183.183 75.349c0.708 8.489 0.708 82.235 0 84.888l-0.53 2.034h-115.66v-93.731h115.572l0.619 6.809zM297.781 116.289v47.749h-86.48l-0.53-2.034c-0.708-2.565-0.708-85.861 0-90.193l0.619-3.272h86.391v47.749zM441.471 116.289v47.307l-116.279 0.442v-95.499l116.279 0.442v47.307zM311.045 252.905v56.15l-111.858-0.442-0.265-55.973-0.177-55.885h112.3v56.149zM455.177 256.001v55.707h-112.3v-111.416h112.3v55.707zM165.144 259.979v56.149h-112.3v-112.3h112.3v56.149zM298.665 395.712v47.75h-87.364l-0.619-9.992c-0.796-12.115 0-80.732 0.884-83.561l0.619-1.945h86.48v47.75zM181.944 350.615c1.15 0.707 1.327 6.72 1.592 43.063 0.177 23.255 0.089 43.947-0.265 45.981l-0.53 3.803h-115.749l0.177-45.716 0.265-45.716 4.864-1.062c6.101-1.238 107.614-1.68 109.646-0.353zM441.913 396.596v46.865h-116.721v-45.45c0-25.025 0.265-46.070 0.531-46.865 0.531-1.238 6.454-1.415 58.361-1.415h57.83v46.865z"></path>
</svg>
